<svg width="172" height="40" viewBox="0 0 172 40" fill="none" xmlns="http://www.w3.org/2000/svg">
<path fill-rule="evenodd" clip-rule="evenodd" d="M12.8784 0.827218C9.61008 1.30892 2.25059 6.70194 1.09968 9.4581C0.45552 11.0009 0.539118 11.4394 1.92536 13.786C4.3457 17.8839 12.2721 27.4032 18.5757 33.7824C25.6913 40.9835 25.8161 41.0051 32.966 36.2511C39.4672 31.9283 50.083 22.9736 51.1635 20.9002C52.2039 18.9041 51.6731 16.7779 49.2814 13.3657C44.8788 7.08537 41.8732 5.56471 33.8054 5.53802C29.724 5.52495 29.5339 5.46133 27.507 3.43341C25.9925 1.91843 24.7076 1.22371 22.8403 0.911288C20.1194 0.455715 15.6526 0.417657 12.8784 0.827218ZM38.4543 10.6697C40.921 11.3491 44.5988 14.7046 44.5988 16.2752C44.5988 18.2566 42.8025 18.1748 40.6353 16.0951C39.3739 14.8852 37.7437 13.9769 36.3935 13.7315C34.1416 13.3231 33.3474 12.4182 33.9268 10.9208C34.3139 9.91878 35.4923 9.85346 38.4543 10.6697ZM62.968 13.8445C53.9743 18.2906 54.0631 31.0904 63.1203 35.7512C64.8793 36.6567 66.5421 36.9793 69.5064 36.9901C73.2174 37.0038 74.185 36.7493 78.5848 34.5992C78.8539 34.468 78.9009 34.902 78.6896 35.5638C78.3226 36.7106 78.4909 36.7669 82.2889 36.7669H86.2736L87.1897 34.4947L88.1064 32.2225H92.6047H97.1035L98.0031 34.4947L98.9026 36.7669H102.957C105.187 36.7669 107.011 36.6754 107.011 36.5641C107.011 36.4522 104.712 31.1483 101.901 24.7771L96.7903 13.193H92.627H88.4637L84.4275 22.4237C82.2082 27.5009 80.1451 31.6545 79.8434 31.6545C79.5416 31.6545 78.4634 30.8547 77.4471 29.8776L75.5993 28.1008L74.0505 29.3096C72.1936 30.7587 68.3521 30.9314 66.5066 29.6498C63.851 27.8043 63.8023 22.3033 66.4207 19.9527C68.1723 18.3798 72.1552 18.4929 73.9509 20.1663L75.3377 21.4592L77.8616 19.1717L80.3856 16.8847L78.3913 15.1709C74.5807 11.8967 68.0446 11.3349 62.968 13.8445ZM112.743 13.0885C110.023 13.9474 106.094 17.9674 105.34 20.6622C103.836 26.0331 105.679 31.8965 109.75 34.6912C114.58 38.0081 122.29 37.903 126.606 34.4618L128.769 32.7372V34.752V36.7669H132.751H136.734L136.903 32.9326L137.072 29.0983L142.082 28.9341L147.092 28.7699V25.9519V23.1338H141.905H136.716L136.895 21.0036L137.072 18.8735L142.655 18.711L148.238 18.5485V15.7288V12.909H138.503H128.769V14.7012C128.769 16.3792 128.705 16.4354 127.757 15.5845C124.535 12.692 117.631 11.544 112.743 13.0885ZM149.955 24.8379V36.7669H153.963H157.972V33.7045V30.6428L162.237 30.4286C166.804 30.2003 168.519 29.3795 170.819 26.3234C171.668 25.1958 172 23.8989 172 21.7137C172 17.9975 170.709 16.006 167.122 14.1871C164.895 13.0589 163.742 12.909 157.278 12.909H149.955V24.8379ZM128.769 24.9532V32.4531L126.598 30.3497C124.541 28.357 123.044 27.6719 123.044 28.7228C123.044 29.4976 120.279 30.5184 118.182 30.5184C116.951 30.5184 115.646 30.0151 114.63 29.1477C113.255 27.9741 113.023 27.3532 113.023 24.8408C113.023 22.2425 113.239 21.7137 114.893 20.247C117.183 18.2174 119.322 18.1191 121.999 19.9209L123.976 21.2524L126.23 19.3614C127.469 18.3213 128.548 17.4664 128.626 17.4619C128.705 17.4573 128.769 20.8281 128.769 24.9532ZM163.677 20.2561C164.519 21.8171 164.424 22.4129 163.125 23.7018C162.416 24.4051 161.216 24.8379 159.976 24.8379H157.972V21.9977V19.1575H160.528C162.47 19.1575 163.227 19.4216 163.677 20.2561ZM94.0373 24.1279L94.9775 26.5421H92.6442C91.0009 26.5421 90.3985 26.3319 90.6075 25.832C90.7707 25.4418 91.2219 24.1551 91.6101 22.9736C92.4049 20.5549 92.7003 20.6957 94.0373 24.1279Z" fill="#CCCCCC"/>
</svg>
