<svg width="50" height="50" viewBox="0 0 50 50" fill="none" xmlns="http://www.w3.org/2000/svg">
<circle cx="25" cy="25" r="25" fill="#12602D"/>
<path d="M23.553 16.123C24.023 16.044 24.506 16 25 16C29.971 16 34 20.029 34 25C34 26.742 33.5 28.363 32.641 29.738C32.867 28.861 33 27.947 33 27C33 21.463 28.884 16.881 23.553 16.123ZM36 25C36 25.947 35.867 26.861 35.641 27.738C36.5 26.363 37 24.742 37 23C37 18.029 32.971 14 28 14C27.506 14 27.023 14.044 26.553 14.123C31.884 14.881 36 19.463 36 25ZM31 27C31 31.971 26.971 36 22 36C17.029 36 13 31.971 13 27C13 22.029 17.029 18 22 18C26.971 18 31 22.029 31 27ZM25.416 28.736C25.416 26.949 23.556 26.451 22.13 25.781C21.266 25.332 21.373 24.256 22.613 24.184C23.304 24.142 24.009 24.346 24.649 24.571L24.951 23.199C24.195 22.969 23.521 22.864 22.916 22.847V22H22.084V22.889C20.463 23.112 19.596 24.129 19.596 25.264C19.596 27.296 21.969 27.606 22.744 27.967C23.805 28.441 23.607 29.425 22.65 29.642C21.82 29.83 20.757 29.502 19.962 29.192L19.584 30.562C20.328 30.947 21.221 31.153 22.084 31.167V32H22.916V31.123C24.297 30.929 25.419 30.167 25.416 28.736Z" fill="white"/>
</svg>
