<svg width="140" height="58" viewBox="0 0 140 58" fill="none" xmlns="http://www.w3.org/2000/svg">
<path d="M7.30237 56.803H1V1.00058H56.4078C80.712 1.00058 84.5473 22.8138 84.5473 22.8138L98.1857 1.00058H112.477L138.601 43.3098L130.417 56.8013H95.9709V50.0704H134.5L105.316 1C105.316 1 86.0825 34.436 81.9535 40.9496C77.8242 47.4635 70.0681 56.7998 56.7828 56.7998H36.2067V23.5794H42.7266V50.0686H57.7219C64.3535 50.0686 78.5852 44.4234 78.5852 28.4648C78.5852 12.5063 63.3724 7.51242 58.3739 7.51242H7.30179V56.7984L7.30237 56.803ZM9.47562 56.803V33.1365H33.8159V39.6504H15.9952V56.8033H9.47533L9.47562 56.803ZM33.8159 30.3138V23.5829H15.9952V16.4436H57.0022C63.1492 16.4436 69.6758 21.4115 69.6758 28.6851C69.6758 35.9587 63.0789 40.9525 58.3749 40.9525H51.9825V23.5826H45.2453V47.4664H58.3749C66.6906 47.4664 76.3041 40.2554 76.3041 28.9021C76.3041 17.6574 67.561 9.90375 57.1057 9.90375H9.47708V30.3135H33.8174L33.8159 30.3138ZM75.4323 56.803L105.316 7.51708L129.874 47.4667H95.9722V40.9528H117.922L105.317 20.4344L84.5627 56.8039H75.4349L75.4323 56.803Z" fill="black" fill-opacity="0.2"/>
</svg>
