<svg width="50" height="50" viewBox="0 0 50 50" fill="none" xmlns="http://www.w3.org/2000/svg">
<circle cx="25" cy="25" r="25" fill="#12602D"/>
<g clip-path="url(#clip0_82_329)">
<path d="M25 22.312L23.238 22.803L24.8 23.684L24.309 24.555L22.747 23.674L23.238 25.436L22.275 25.704L21.515 22.98L19.5 21.854V23.793L21.5 25.793L20.793 26.5L19.5 25.207V27H18.5V25.207L17.207 26.5L16.5 25.793L18.5 23.793V21.854L16.485 22.98L15.724 25.704L14.761 25.436L15.252 23.674L13.69 24.556L13.199 23.685L14.761 22.804L13 22.312L13.269 21.35L15.994 22.11L17.976 21L15.993 19.891L13.269 20.65L13 19.688L14.762 19.197L13.199 18.315L13.69 17.444L15.252 18.325L14.762 16.563L15.725 16.294L16.485 19.019L18.5 20.147V18.207L16.5 16.207L17.207 15.5L18.5 16.793V15H19.5V16.793L20.793 15.5L21.5 16.207L19.5 18.207V20.147L21.516 19.02L22.276 16.295L23.239 16.564L22.747 18.325L24.309 17.444L24.8 18.315L23.238 19.196L25 19.688L24.731 20.65L22.006 19.89L20.024 21L22.006 22.109L24.731 21.349L25 22.312ZM29 16.5V24.025C29 25.595 28.486 26.313 27.59 27.074C26.579 27.933 26 29.181 26 30.5C26 32.981 28.019 35 30.5 35C32.981 35 35 32.981 35 30.5C35 29.181 34.421 27.933 33.411 27.074C32.514 26.312 32 25.594 32 24.025V16.5C32 15.673 31.327 15 30.5 15C29.673 15 29 15.673 29 16.5ZM34 16.5V24.025C34 24.612 34.258 25.17 34.705 25.55C36.108 26.742 37 28.516 37 30.5C37 34.09 34.091 37 30.5 37C26.909 37 24 34.09 24 30.5C24 28.516 24.892 26.742 26.295 25.551C26.742 25.17 27 24.611 27 24.025V16.5C27 14.566 28.567 13 30.5 13C32.433 13 34 14.566 34 16.5ZM34 30.5C34 32.434 32.433 34 30.5 34C28.567 34 27 32.434 27 30.5C27 29.359 27.599 28.416 28.393 27.719C29.403 26.83 30 25.982 30 24.498V24H31V24.498C31 25.984 31.595 26.828 32.607 27.719C33.401 28.416 34 29.359 34 30.5Z" fill="white"/>
</g>
<defs>
<clipPath id="clip0_82_329">
<rect width="24" height="24" fill="white" transform="translate(13 13)"/>
</clipPath>
</defs>
</svg>
