<svg width="56" height="72" viewBox="0 0 56 72" fill="none" xmlns="http://www.w3.org/2000/svg">
<path d="M4.82005 57.773C0.350507 49.21 2.60587 40.5313 9.29571 33.5128C18.2711 24.0966 33.542 23.6063 43.8223 31.6225C50.6534 36.9491 54.8697 44.6427 53.0933 53.047C51.109 62.4348 39.6663 68.4853 33.2725 69.7457C26.8787 71.0061 9.98524 67.6687 4.82005 57.773Z" fill="#F4B812" stroke="#F4B812" stroke-width="4"/>
<path d="M36.2423 7.1184C27.4594 8.72201 27.9066 15.041 29.2281 18C35.2257 14.7546 47.5869 7.34749 49.0507 3.68211C50.8805 -0.899619 47.2209 5.1139 36.2423 7.1184Z" fill="#F4B812" stroke="#F4B812" stroke-width="4"/>
<path d="M14.4387 8.82843C20.8387 10.8284 21.772 16.3284 21.4387 18.8284C21.4387 18.8284 9.43872 12.8284 6.43871 10.8284C3.43871 8.82843 8.03871 6.82843 14.4387 8.82843Z" fill="#F4B812" stroke="#F4B812" stroke-width="4"/>
<path d="M27.076 61.14V56.1L27.94 57.18C26.428 56.94 25.108 56.424 23.98 55.632C22.852 54.816 21.976 53.772 21.352 52.5C20.752 51.228 20.452 49.788 20.452 48.18C20.452 46.644 20.764 45.252 21.388 44.004C22.012 42.756 22.876 41.724 23.98 40.908C25.108 40.068 26.428 39.54 27.94 39.324L27.076 40.476V35.076H30.676V40.224L29.74 39.18C30.988 39.18 32.188 39.372 33.34 39.756C34.516 40.14 35.452 40.68 36.148 41.376L34.888 44.472C34.216 43.92 33.46 43.488 32.62 43.176C31.78 42.84 30.928 42.672 30.064 42.672C28.504 42.672 27.28 43.176 26.392 44.184C25.504 45.192 25.06 46.5 25.06 48.108C25.06 49.74 25.492 51.072 26.356 52.104C27.244 53.136 28.468 53.652 30.028 53.652C30.892 53.652 31.744 53.496 32.584 53.184C33.448 52.848 34.216 52.404 34.888 51.852L36.148 54.948C35.404 55.62 34.456 56.172 33.304 56.604C32.176 57.012 30.964 57.24 29.668 57.288L30.676 56.316V61.14H27.076Z" fill="white"/>
</svg>
