<svg width="32" height="32" viewBox="0 0 32 32" fill="none" xmlns="http://www.w3.org/2000/svg">
<circle cx="16" cy="16" r="16" fill="black"/>
<path d="M12.9167 24.6458C12.5 24.6458 12.1458 24.5 11.8542 24.2083C11.5625 23.9167 11.4167 23.5625 11.4167 23.1458C11.4167 22.7292 11.5625 22.375 11.8542 22.0833C12.1458 21.7917 12.5 21.6458 12.9167 21.6458C13.3333 21.6458 13.6875 21.7917 13.9792 22.0833C14.2708 22.375 14.4167 22.7292 14.4167 23.1458C14.4167 23.5625 14.2708 23.9167 13.9792 24.2083C13.6875 24.5 13.3333 24.6458 12.9167 24.6458ZM21.25 24.6458C20.8333 24.6458 20.4792 24.5 20.1875 24.2083C19.8958 23.9167 19.75 23.5625 19.75 23.1458C19.75 22.7292 19.8958 22.375 20.1875 22.0833C20.4792 21.7917 20.8333 21.6458 21.25 21.6458C21.6667 21.6458 22.0208 21.7917 22.3125 22.0833C22.6042 22.375 22.75 22.7292 22.75 23.1458C22.75 23.5625 22.6042 23.9167 22.3125 24.2083C22.0208 24.5 21.6667 24.6458 21.25 24.6458ZM11.8333 10.8958L14.125 15.6458H20.125L22.7292 10.8958H11.8333ZM11.2083 9.64583H23.4792C23.7986 9.64583 24.0417 9.79167 24.2083 10.0833C24.375 10.375 24.375 10.6667 24.2083 10.9583L21.3958 16.0208C21.2431 16.2847 21.0451 16.4965 20.8021 16.6562C20.559 16.816 20.2917 16.8958 20 16.8958H13.6875L12.5208 19.0625H22.75V20.3125H12.7083C12.125 20.3125 11.7049 20.1181 11.4479 19.7292C11.191 19.3403 11.1944 18.9028 11.4583 18.4167L12.7917 15.9583L9.625 9.25H8V8H10.4375L11.2083 9.64583ZM14.125 15.6458H20.125H14.125Z" fill="#F4B812"/>
</svg>
