<svg width="32" height="32" viewBox="0 0 32 32" fill="none" xmlns="http://www.w3.org/2000/svg">
<path d="M28 8.286C27.118 8.67667 26.1693 8.93733 25.1687 9.06067C26.186 8.45667 26.9687 7.49333 27.336 6.35533C26.384 6.91333 25.3293 7.32333 24.2073 7.53933C23.3113 6.58933 22.0333 6 20.6173 6C17.8973 6 15.6927 8.18533 15.6927 10.88C15.6927 11.2613 15.7373 11.6327 15.8213 11.9933C11.7293 11.788 8.1 9.84267 5.672 6.89067C5.24533 7.612 5.00533 8.45667 5.00533 9.348C5.00533 11.042 5.87267 12.5333 7.19533 13.412C6.388 13.3873 5.628 13.1627 4.96267 12.8027C4.96267 12.8173 4.96267 12.8393 4.96267 12.86C4.96267 15.2273 6.66067 17.1987 8.91133 17.6473C8.5 17.76 8.06533 17.8227 7.61733 17.8227C7.29933 17.8227 6.98933 17.7867 6.68933 17.7327C7.316 19.6673 9.134 21.0813 11.288 21.1233C9.60267 22.43 7.48 23.2127 5.172 23.2127C4.77333 23.2127 4.38333 23.19 3.998 23.1433C6.17867 24.524 8.768 25.3333 11.5473 25.3333C20.604 25.3333 25.5587 17.896 25.5587 11.444C25.5587 11.2327 25.552 11.022 25.542 10.814C26.5087 10.1313 27.342 9.27 28 8.286Z" fill="white"/>
</svg>
