<svg width="85" height="58" viewBox="0 0 85 58" fill="none" xmlns="http://www.w3.org/2000/svg">
<g clip-path="url(#clip0_76_424)">
<path d="M19.1724 2.32815L19.0631 16.7639C19.0631 22.7692 15.4644 25.0917 10.6296 25.0917C6.46169 25.0917 1.14977 23.2588 1.14977 17.0086V2.32815C1.13377 1.98168 1.01664 1.64724 0.812566 1.36536C0.608493 1.08348 0.326237 0.866248 0 0.73999H6.83537C6.51522 0.869573 6.24023 1.08888 6.04416 1.371C5.84809 1.65311 5.73945 1.98577 5.73159 2.32815V17.1282C5.73159 19.5986 6.58817 23.0937 11.2217 23.0937C15.4644 23.0937 16.9706 20.3386 16.9706 16.8322L16.9246 2.32815C16.9356 2.00006 16.851 1.67577 16.6807 1.39411C16.5104 1.11244 16.2618 0.885339 15.9645 0.73999H20.0979C19.8071 0.890163 19.5656 1.11934 19.4016 1.40063C19.2377 1.68193 19.1582 2.00368 19.1724 2.32815Z" fill="#CCCCCC"/>
<path d="M28.8247 25.0918C26.4403 25.0643 24.0962 24.4791 21.9836 23.3841L21.8054 17.4185C22.4837 19.9231 24.6223 23.2418 28.3303 23.2418C31.8601 23.2418 32.9294 20.7371 32.9294 19.0067C32.9294 15.5913 29.8307 15.1587 26.6056 13.4282C23.3805 11.6977 21.9031 9.72252 21.9031 7.04144C21.8743 2.27697 26.4044 0.352969 29.6468 0.352969C31.5209 0.346753 33.3681 0.794254 35.0277 1.65651L35.2059 6.88205C34.7057 5.00928 32.6764 2.18589 29.2559 2.18589C26.5481 2.18589 25.4789 4.05867 25.4789 5.60128C25.4789 7.75298 27.0138 8.56698 30.3596 10.0811C33.7055 11.5953 37.1318 12.7736 37.1318 17.6804C37.1318 22.0919 33.2111 25.0918 28.8247 25.0918Z" fill="#CCCCCC"/>
<path d="M48.6409 24.7388H39.483C39.7703 24.5844 40.0088 24.3544 40.1722 24.0741C40.3356 23.7938 40.4174 23.4741 40.4086 23.1506V2.32815C40.4228 2.00368 40.3433 1.68193 40.1793 1.40063C40.0154 1.11934 39.7739 0.890163 39.483 0.73999H48.9629C60.6905 0.73999 63.0418 8.96538 63.0418 12.3865C63.0418 18.5285 58.2645 24.7388 48.6409 24.7388ZM48.2155 2.50461C47.3589 2.50461 45.4733 2.50461 44.9387 2.57292V22.9059H47.8131C55.8615 22.9059 58.115 17.5437 58.115 12.3865C58.0863 8.15138 55.5913 2.50461 48.2155 2.50461Z" fill="#CCCCCC"/>
<path d="M76.8965 24.7388C77.822 24.2436 78.0002 23.7483 77.753 23.0311C77.6438 22.6782 76.7182 20.5265 75.7237 18.1243H66.9682C66.2206 19.7142 65.5548 21.3404 64.9734 22.9969C64.6514 23.8451 64.8296 24.3403 65.7955 24.7616H60.8745C61.587 24.3644 62.1681 23.7712 62.5474 23.0539C63.2487 21.6706 72.6193 0 72.6193 0C72.6193 0 82.0992 21.6706 82.743 23.0083C82.9074 23.3979 83.1501 23.7502 83.4565 24.0438C83.7629 24.3374 84.1265 24.5662 84.5252 24.716L76.8965 24.7388ZM71.2626 7.62201C71.2626 7.62201 68.8366 13.6217 67.6983 16.2686H74.9016C73.2287 12.3523 71.2683 7.62201 71.2683 7.62201H71.2626Z" fill="#CCCCCC"/>
<path d="M83.4558 28.1315C83.4558 28.1315 31.5841 26.8564 0.856567 43.0681C0.856567 43.0681 33.4122 30.3173 83.4443 31.5924L83.4558 28.1315Z" fill="#CCCCCC"/>
<path d="M0.856567 28.1315C0.856567 28.1315 18.3273 28.3136 29.1811 32.321C29.1811 32.321 6.92734 30.4995 0.856567 31.4102V28.1315Z" fill="#CCCCCC"/>
<path d="M0.856567 33.7782C0.856567 33.7782 13.366 33.209 20.9028 33.9604C20.9028 33.9604 2.6962 36.1462 0.856567 37.057V33.7782Z" fill="#CCCCCC"/>
<path d="M74.8613 34.336H74.5969C59.4947 34.6263 27.8761 36.4307 0.856567 45.8743V57.2589H83.4443V34.336C83.4443 34.336 80.2595 34.2392 74.8613 34.336Z" fill="#CCCCCC"/>
</g>
<defs>
<clipPath id="clip0_76_424">
<rect width="84.5252" height="57.259" fill="white"/>
</clipPath>
</defs>
</svg>
